<svg fill="none" xmlns="http://www.w3.org/2000/svg" viewBox="0 0 400 400"><path d="M202 126h.3c1 0 1.8.1 2.6.4 1.4.6 2.7 1 4 1.7.9.5 1.7 1 2.3 1.9.3.5.8 1 1.4 1.3.6.3 1 .9 1.1 1.5.6 1.7-.5 3.4-2.3 3.6l-.7.1c-.4.2-.6.6-.4 1 0 .2.2.4.3.5l.3 1.2c.2 1.2-.8 2.3-2.2 2.3-.5 0-1-.2-1.6-.5l-1-.7-1-.5h-.8l-2.8.5c-1 .2-2 .2-3 0l-1.4-.2c-1-.1-1.9-.1-2.8-.6a.8.8 0 00-.4-.1c-.8 0-1.5-.4-2.3-.6a4 4 0 00-1.4-.2h-1.5c-1 0-1.5-.4-1.9-1.3l-.3-1v-.9c0-.4.2-.7.3-1.1 0-.4-.2-.7-.6-.6l-.8.2-1.1.4c-1 0-1.9-.2-2.6-.8-.5-.4-.8-1-.7-1.8v-.4c0-.7.2-1.4.5-2a4.5 4.5 0 012.7-2.9l1-.3c.9-.2 1.8-.6 2.6-1l2.1-.7c.8-.2 1.5-.1 2.1.4l1.8 1.4c1.1 1 .8 3.1-.4 3.9l-1.8 1.1a9 9 0 00-1.2.8c-.3.2-.2.5 0 .6l.3.2 4.5 1.4 1 .2h1.4l1.4.1c.5.2 1.1.2 1.7 0 .5 0 1 0 1.4-.2h.5c.3-.2.6-.3.6-.7 0-.3-.3-.5-.5-.6-.4-.3-.9-.4-1.3-.6l-1.4-.5a6 6 0 01-1-.5 3 3 0 01-1.4-2.4c0-.4 0-.7.3-1l.7-1a2 2 0 011.7-1h1.7zm-15.2 27.7v-.5c0-1.4 1.2-2.2 2.2-2.2h1.1c.6.3 1 .7 1.4 1.2l.5 1c.5 1 1.1 1.8 1.7 2.7l.4.3 1.5.9c.7.2 1.3.5 2 .6.6.2 1.2.2 2 .2h1.2c1 0 1.9 0 2.8-.3l1.2-.3c.4 0 .9.1 1.2.4.6.5 1 1 1.2 1.8v.2c-.1.7-.2 1.4-.7 1.9a6 6 0 01-2.1 1.5c-1 .4-2.1.6-3.2.8l-.8.1c-.7.1-1.4 0-2.1-.1-.8-.2-1.5-.5-2.3-.5-.5 0-1-.3-1.5-.5l-2-.7a7.4 7.4 0 01-3.4-2.7l-.8-1a7 7 0 01-1-2.4c-.3-.8-.5-1.6-.5-2.4zm27.7-32.9c-.6 0-1.2 0-1.7-.2l-.6-.1-1.5-.3-2-1c-.6-.3-1-.8-1.4-1.4-.6-.8-1-1.7-1.4-2.6l-.1-.8c-.1-.9.2-1.5.8-2.1.9-.9 2.2-1 3.2-.1l.5.6.8 1c.7.7 1.5 1.1 2.4 1.2.9 0 1.7 0 2.6-.2l2.7-.6c1.5-.4 2.9.4 3.3 2l-.1 1c-.2.6-.6 1-1.1 1.5-.9.7-1.8 1.2-2.9 1.5l-1 .2c-.9.2-1.7.5-2.5.4zm43.2 4.9v1c-.2 1-.7 1.3-1.5 1.3-.5 0-.8 0-1.1-.5-.4-.5-1.1-.6-1.7-.3l-.6.5c-.6.3-.9.8-1 1.4a5 5 0 01-.5 2.2c-.5.8-1.2 1.4-2.2 1.6-.3.1-.7 0-.8-.3-.2-.8-.6-1.6-.5-2.5.2-1 .3-2.1.8-3.1l.7-1.2c.4-.9 1.2-2 2-2.5l2-.9c.6-.4 1.2-.5 1.7-.6.5-.1 1.1 0 1.5.3.7.3.7.9.9 1.5.2.7.4 1.4.3 2.1z" fill="currentColor"/><path d="M76.8 262v2.6c0 1.2.3 2.4.5 3.5.2 1 .4 1.9.4 2.8l.3 2.4.4 2.2c.7 2 1.2 4 1.7 5.9.4 1.5.8 3 1.5 4.4.7 1.7 1.5 3.4 2.6 5l.8 1.4 1.1 1.9c1.2 1.5 2.3 3 3.8 4.4l.5.6c1.2 1.2 2.5 2.4 4.2 3.1l2.4 1.1.7.2 4.1.8c.3 0 2 .3 2.7.2a45 45 0 007.4-.6l1.7-.4c.8-.1 1.6-.5 2.4-.8l2-.8a94.5 94.5 0 005.8-2.5h1.1c1 .3 2 .8 2.8 1.3l2.4 1.2 2 .9a43 43 0 004.7 2l3 1.5 1.1.9.7.4 3.3 1.3.2.1c1 .2 1.8.6 2.8.9 1.4.3 2.7.8 4 1.4.5.1 1 .4 1.3.6.4.3.9.6 1.4.7l3.4 1.2 4 1.4c1.3.6 2.8 1 4.2 1.4l3 .9 2.4.6.8.1c.7.1 1.3.4 2 .3l1 .2c.4 0 1 0 1.4.2l1.3.3.5.1 3.1.2c1.3 0 2.6.3 3.8.8.5.2 1 .3 1.6.3 1 0 2.1.3 3.2.5l2 .2c1.6-.1 3.2.2 4.7.5l2.8.5h.2c1.3.5 2.7.4 4 .4h4.3l1 .1h.8l.6.1c1.3.4 2.7.3 4 .3h3.2c1-.1 2.1-.1 3.2 0 1 0 2.1 0 3.1-.2h.3l4.5-.3h.6c1-.3 1.9-.2 2.8-.2l2.6-.1h5.1c.6 0 1.2 0 1.7-.3a3 3 0 011.3-.3l2.4-.1h5.1l2.3-.3 1.3-.2c.8 0 1.5-.2 2.2-.3l.5-.1c1.5 0 2.8-.4 4.2-.5.7 0 1.4-.3 2-.4l2-.4 2-.6 2.5-1.1 1.9-.8a4 4 0 001.3-.8c.7-.7 1.4-1.3 2.3-1.8l1-.7c1-.8 2-1.5 3-2.5l.3-.3a24 24 0 004.5-4.5c1.7-2 2.7-3 4.2-5l.9-1.5.7-1.4a156.6 156.6 0 006.9-17.4l.2-.8.8-3.3c.1-.7.6-1 1.3-1.1h1.1l.5-.1c.7-.2 1.3-.6 1.8-1.1.5-.5.8-1 .9-1.7 0-.7 0-1.4.2-2.1 0-.6.1-1.1.3-1.6l.3-1.4c0-1 .1-1.9.3-2.8.2-1 .4-2 .4-3v-.7c.2-.5.4-1 .4-1.5 0-.8.2-1.6.3-2.3l.3-2.4v-.5l.2-.8v-2.4c.3-1 .2-2 .6-2.8V245c0-1.1.1-2.2.3-3.2.1-.4.2-.8 0-1.2v-1.7l.2-.8V235c.2-.7.2-1.5.2-2.2v-1.3c.2-1.6-.1-3.1-.3-4.7l-.1-1.9c0-1 0-2.2-.2-3.3v-.5c0-1-.3-2.1-.3-3.2l-.2-1.8-.1-1.8c0-.4 0-.8-.2-1.2l-.3-1.5c0-1-.4-2-.6-2.8l-.4-1c-.2-1-.3-2-.7-2.9v-.2l-1-3.5-1-2.7c-.2-.3-.2-.7-.3-1-.2-.8-.5-1.5-.9-2.2l-.6-1.6-.6-1.2-1.6-2.9c-.4-.8-.7-1.5-1.2-2.2l-2.5-3-.9-1c-.4-.7-1-1.2-1.5-1.7l-2.4-2-1.9-1.6-2-1.3-1.1-.8-3.4-2.3-3-1.8c-.8-.5-1.5-1.1-2.5-1.5-1-.3-1.7-1-2.5-1.5h-.1c-1.4-.5-2.6-1.3-4-1.6l-2.9-1-3.6-1.2c-1.1-.3-2.2-.7-3.4-.9-.3-.2-.8-.1-1.2-.2l-2.6-.7h-.8c-1-.5-2-.8-3.2-1-1.2-.4-2.3-.9-3.5-1.1l-1.4-.5-1.9-1c-.7-.4-1.2-1-1.3-1.8a5 5 0 00-.8-2c-.5-.6-.4-1.3-.2-2l1-2.6.5-1.5c.2-1 .6-2 1-3 .5-1 1-2.1 1.3-3.3 0-.4.2-.7.3-1l.1-.2h.2c0 .6.2 1.1.4 1.7.1.7.4 1.3.8 1.9.6.8 1.4 1.5 2.2 2.1.8.5 1.6.8 2.5 1h3c.7 0 1.3-.2 2-.5l1.4-1.3c.8-1 1.7-2 2.2-3.2l1-2.9v-.2c0-1.4.1-2.7-.3-4-.2-.3 0-.5.1-.7.7-.8 1.4-1.7 1.8-2.7l2-4.5.2-1 .3-.8c.3-1 .6-1.9.6-2.9v-.7a7.5 7.5 0 00-2.2-7l-1-1.3c-.6-.6-.6-1.3-.3-2l.8-1.6c.1-.4.3-.7.3-1.1-.2-.9-.1-1.7-.4-2.5-.3-1-.7-1.7-1.5-2.3l-1.1-.8-.8-.6c-.3-.2-.4-.4-.5-.8-.2-.5-.2-1 0-1.4l-.1-1.5c-.3-1-1-2-1.4-3 0-.3-.3-.5-.5-.7a8.8 8.8 0 00-3-2.1 6 6 0 00-2.3-.6 2 2 0 01-1.9-1.3l-.3-1-.7-3c-.3-1.3-.6-2.6-1.3-3.8-.5-.9-.9-1.8-1.2-2.8-.4-.8-.8-1.7-1.3-2.4l-1.4-2.6c-.2-.5-.3-1-.6-1.3-.6-.7-1-1.6-1.5-2.4l-1.5-2-3.5-3.7-1.7-1.5c-.7-.8-1.5-1.5-2.3-2l-4-2.8c-.5-.3-1-.6-1.7-.8l-1.2-.5-1.3-.7a35 35 0 00-5.5-1.5l-2.6-.5-2-.2c-.5-.2-1-.2-1.6-.2h-3.6c-.6-.2-1.1-.1-1.7 0l-1.1.2c-1 0-1.8.2-2.7.5a23 23 0 01-3.4 1.1c-1.2.3-2.3.8-3.3 1.4l-1.3.8c-1 .4-1.7 1-2.6 1.7l-1 .8a9 9 0 00-2.1 2.3c-.4.7-1 1.3-1.5 1.8l-.6.9-2.9 4.7-1.3 2.5c-.3.6-.7 1.2-1.4 1.4l-2.2.6c-.6 0-1.2.2-1.7.3-.6 0-1.1.4-1.7.5l-1 .2-1 .3c-1.1.5-2.2 1-3.1 1.7l-1.9 1.3-1.3.8c-1 .9-1.6 1-2.6 1.9l-1.5 1.2-1.6 1.4-1.1 1.3c-.7.7-.6 1.2-1 2.1l-.2 1.3v1.5c0 .5.1 1 .5 1.3l.7 1A7 7 0 00166 99l.5.1 1.4.2c.7.2 1 .5.8 1.2l-.3 1.3c0 .5-.4.9-.7 1.2l-.4.3c-.9.7-1.6 1.5-2 2.5l-.5 1a1 1 0 01-.5.4c-.7.1-1.2.5-1.8.8-.5.2-1 .5-1.3 1a14.5 14.5 0 00-2.6 6l-.3 1.7c-.2.9 0 1.7-.2 2.7v3l.6 3c.2.7.6 1.4.6 2.3.4 1.2.8 2.3 1.4 3.4l.8.8a19.8 19.8 0 003 1.8l.9.2c.7.1 1.2.8 1.1 1.6l-.1 1.2-.3 1.8-.3 3.2a14 14 0 00-.2 2.4v1.5l.1 2 .3 1.8a26 26 0 001.4 6.5l.2.6.9 2.6.4 1.3.7 2c.3 1 .8 1.9 1.2 2.8l.5 1c.3.5.1 1-.4 1.3a6 6 0 01-1.2.4l-3 .9-3.8 1.3c-1.3.4-2.6.8-3.8 1.5-.2 0-.4 0-.5.2-1.3.5-2.7.8-4 1.5l-4.2 2-1.7.7a7 7 0 01-3.6 0h-4.5c-.5 0-1-.3-1.2-.8l-.3-.4c-.6-.8-1-1.6-1.7-2.3l-.8-1.4-1-1.3a5 5 0 00-1.4-1.4l-2-1.2c-1-.5-1.9-.8-2.8-1l-2.4-.4-2-.1h-5.3l-2 .6c-1.9.6-3.6 1.3-5.3 2.3a9 9 0 00-2.2 1.6c-.6.7-1.4 1-2.4 1.2-.7.1-1.5.2-2.2.6l-1.9 1-1 .5-2.4 2.1c-.6.7-1.1 1.5-1.3 2.4-.1.7-.5 1.2-1 1.8l-1 1.2-.7 1-.8 1.1-1.1 1.8c-1 1.1-1.5 2.4-2.1 3.6-.8 1.7-1.1 3.6-1.4 5.4a15.9 15.9 0 00-.3 3.8c-.2.7-.2 1.5-.2 2.2v.5c-.2.6-.1 1 0 1.6 0 1 .1 1.8-.2 2.7l-.5 2c-.1 1-.5 2-.9 3l-1 2.4-1.7 3.8-.6 1.4-.7 1.9-1.6 4-.2.5-1.1 3.6c-.5 1.1-.9 2.2-1.1 3.4a53.5 53.5 0 01-1 4c0 .8-.1 1.5-.3 2.3-.3 1.3-.9 2.6-1 4l-.2 1.5a56.6 56.6 0 00-1 4.6v2.2c-.2.6-.2 1.2-.2 1.8 0 .6 0 1.3-.2 2v2.5l-.1 1c-.2 1-.2 2.1-.2 3.1l.2 2.4zm215 14a213 213 0 01-1.1 4.6 32.8 32.8 0 00-1.7 4.7l-1.5 3.4-.7 1.6c-.3 1-.7 1.8-1.3 2.7l-.5 1.2a289.8 289.8 0 01-4.4 7c-.5.4-1 1-1.3 1.5l-1.3 1.5-4.2 4-.5.4c-1 .5-1.9 1.3-2.8 1.8l-3.3 2c-1 .5-2.2.9-3.3 1.1l-2.8.8c-.1 0-.3.1-.4 0l-1.1.1-1.2.3a1 1 0 01-.4.1c-1.1 0-2.3.3-3.4.4l-2.9.3h-.4c-.8.3-1.7.2-2.5.2h-10.6c-2 .2-3.8.1-5.7.2l-1.9.1-1 .1h-3c-1.5.1-3 0-4.6.2l-2.4-.1c-.7.2-1.5 0-2.2 0h-1c-.6 0-1.2.2-1.7 0h-.3c-.6.2-1.2.2-1.7 0h-.3c-1 .2-2 0-3-.2h-.5c-.7.2-1.3-.1-2-.1h-2c-.7 0-1.4-.3-2-.4h-.7a78.2 78.2 0 00-3.3-.2l-1.3-.4H196l-1.6-.4h-.6c-.5 0-.9 0-1.4-.2l-.9-.1c-.6 0-1.2 0-1.8-.3h-.4c-.8-.2-1.6-.2-2.5-.3l-.8-.1c-.2 0-.4-.2-.7-.1-.7 0-1.5-.3-2.2-.4l-1.8-.3-.7-.2c-.1 0-.3-.2-.4-.1-.6.1-1.1-.1-1.7-.2 0 0-.2-.1-.4 0-.9 0-1.7-.2-2.6-.3l-2-.5c-.6-.3-1.3-.4-2-.5-.7 0-1.4-.2-2-.6l-2-.7-3.9-1c-1-.3-2-.7-3-1.3l-.4-.2-2.5-1c-.8-.4-1.7-.6-2.5-.8l-1.1-.4c-1.4-.8-3-1.2-4.4-1.7l-1.8-.8-2.5-1-2.3-1.1-1-.5-.2-.1c-1.6-1-3.4-1.5-5-2.3l-1-.5c-1-.3-2-.7-2.9-1.2l-2.7-1.4-1.4-.8-2.4-1.5-3-1.7c-1-.5-2-1.2-3-2l-.8-1-1-.7c-1.2-.6-2.1-1.5-3-2.4-.6-.8-1.2-1.7-2-2.5l-.1-.2c-1.3-1.2-2.3-2.7-3.6-3.8l-.8-1c-.7-1.2-1.7-2.2-2.6-3.2l-2-2.7-.9-2v-4.2c0-.9-.2-1.7-.3-2.5a9 9 0 01-.3-2.4 27.4 27.4 0 00-.2-3.2l-.1-.4-.2-3.2c0-.6.1-1.1-.2-1.7 0-.9-.4-1.8-.3-2.7v-.4l-.4-2.3v-4.4c0-1.2.1-2.3.3-3.4l.4-4.3.1-.4a110.7 110.7 0 011.3-3c.4-.4.8-.4 1.2 0a6 6 0 011 2.2l.4 1.7.4 1.6.4 2.1c0 1 .4 2 .3 3v.6c.3.6.2 1.2.2 1.9a137.9 137.9 0 000 3l1 3c.8 1.4 1.5 2.9 1.8 4.5l1.3 3.8.4.9.5.8c.5 1.4 1.3 2.7 2 4l1.3 1.8.7.8c.8 1.2 2 2.2 2.9 3.3l.8.7c.9.6 1.7 1.1 2.8 1.3 1.3.3 2.5.2 3.7-.5 1-.5 2-1.4 2.3-2.6l.2-.8V266c0-.6 0-1.1.2-1.7v-.9a34.7 34.7 0 01.4-5.8v-7c.3-.7.2-1.5.2-2.2 0-.5.1-1 .3-1.4.1-.2.3-.4.6-.5a3 3 0 011.1-.2 2 2 0 011.9 1.3 17.2 17.2 0 011.3 6l.3 3 .5 3 .4 2.6.2 2c.4 1.9.9 3.7 1.8 5.4 1.1 2 1.9 4.1 2.7 6.2.2.5.4 1 .7 1.3.5.6.9 1.2 1.1 1.8.5 1.1 1.3 1.9 2.3 2.5a15.6 15.6 0 005.3 2c1.3 0 2.4-.2 3.3-1.2l.6-.6c.5-.4 1-.6 1.7-.7 1 0 2-.2 2.9-.3h1c1.1 0 2.2-.2 3.2-.5l3-.6c.7 0 1.4-.3 2-.5.7-.1 1.3-.3 2-.3a9 9 0 002-.4l1.4-.3 2-.2c1 0 2-.3 3-.4.9-.2 1.9-.4 2.8-.4 1 0 2-.2 2.9-.3l.5-.1c1 0 1.8-.3 2.7-.4l2.4-.4h.6l.5-.2c.8.2 1.5-.1 2.2-.2.8 0 1.5-.2 2.2-.3.4-.1.8-.3 1.3-.1l1.7-.4c1-.3 1.8-.4 2.8-.4 1.2 0 2.3-.2 3.5-.4.8-.2 1.5-.4 2.3-.4l.6-.2c.9-.3 1.8-.5 2.8-.5a6 6 0 001.8-.3c1.4-.5 2.8-.9 4.2-1.1 1.5-.3 3-.6 4.4-.6.3 0 .5-.1.8 0 .8.2 1.6 0 2.5.1.6 0 1.1 0 1.7.2h.4l2.8.2h1.3c.5 0 1 0 1.4.2h1.2l1.4.1h.4c.9.4 1.9.4 2.8.6l1.8.4c.8.1 1.6.3 2.3.6l1.8.5 3 .9c.8.3 1.5.4 2.2.5l3.3.8.7.1 1.2.3c.9.4 1.9.5 2.8.7h.8c.9-.4 1.5-1.2 1.5-2.1 0-.9-.1-1.7-.9-2.3-1.1-.9-2.3-1.9-3.8-2.2l-.7-.2v-.3h2.5l2.5.3c1.2 0 2.4.2 3.5.4l2.4.3 1.8.2c1 0 2 .2 3 .4s2 .5 3 .5c.8.1 1.7.4 2.6.4.5 0 .9.1 1.3.3.5.2 1 .3 1.6.3.8 0 1.6.2 2.3.3.8.2 1.5.4 2.2.4l1.6.1h.3c.8 0 1.6.3 2.4.4l.3.1c1 0 1.8.2 2.8.3.4 0 .9.1 1.3.3.6.2.8.7.7 1.3zM104 210.4c0-.5.2-1 .5-1.4h.3l.6 1c.3.6.6 1 1.1 1.4l2.4 1.7 1.1.7 2 1.2c.7.4.9 1 .9 1.7v1.7c0 1 .7 1.7 1.6 2.1l1.8.5c.9 0 1.5.4 1.8 1.3.1.4.4.7.6 1l.2.5c.5.7.7 1.4.6 2.3v1c0 .6.1 1.1.3 1.7.3.6.7 1.1 1.3 1.5l1.4 1c.6.5 1.3.9 2 1.1.8.2 1.3.8 1.6 1.5l.4.7c.1.3.3.6.6.8.7.6 1.5 1 2.4 1 1.2.1 2.4 0 3.5-.4l2.7-.8c.3 0 .5-.3.8-.4l1-.3c.3-.1.7-.2 1 0l1.1.4c.8.4 1.6.6 2.4.7.5 0 .8.3 1.2.6.5.4.9 1 1.2 1.6l.8 1.3c.4.8.8 1.6 1 2.5 0 1 .4 1.7 1 2.3.6.6 1 1.3 1.3 2l.3.7c.4 1.6 1.6 2.5 3 3.2l.6.3c.7.2 1.3.7 1.7 1.4l1.2 1.5c1 1.2 2 2.3 3.3 3l.8 1c.5 1 1.2 1.6 2 2.2l.8.7c.8.7 1.8 1 2.8 1 .8 0 1.4.3 2 .9.5.6 1.3 1 2 1.4.8.5 1.6 1 2.2 1.7l1.5.9c.7.2 1.2.6 1.7 1.1l1.1 1.3a3 3 0 002.2 1c.4 0 .8.1 1.1.3.2.2.3.5 0 .6l-.7.4-2 .4h-.7c-.8 0-1.5.1-2.3.3-.6.2-1.2.4-2 .4l-1.3.2c-1.2 0-2.3-.1-3.5-.3-.7 0-1.3-.5-1.9-.9l-1.4-1a3 3 0 00-1.9-.3h-.7c-.6.1-1.1-.2-1.3-.8l-.2-1.3-.3-1.2c-.1-.4-.4-.8-.8-1-.5-.5-1.1-.7-1.7-1h-.4c-.7.1-1.2-.2-1.5-.8l-.7-1.8c-.5-1.3-1.6-1.8-2.8-2.2-.6-.2-1.2-.2-1.8 0l-1.6.2c-.6.2-1.2 0-1.6-.5-.5-.6-1.2-.9-2-1.1-.8-.3-1.3-1-1.4-1.9 0-1-.3-1.9-.5-2.8l-.3-2.4c-.1-.3 0-.6-.2-1v-.7c0-.7-.2-1.4-.5-2.1-.4-1-.8-2-1.4-2.8-1-1.1-1.8-2.2-3-3-.7-.3-1.3-.7-2.1-.8l-1.2-.2c-1.8-.2-3.4.2-5 1l-1 .5c-.8.5-1.6.5-2.4 0l-.6-.3c-.5-.3-.8-.7-1-1.3v-.3a7 7 0 00-2.2-3.9c-1.2-.8-2.2-1.7-3.2-2.7l-2.5-2.1-1.6-1.3a4 4 0 01-1.6-2.4c0-.6-.3-1.1-.4-1.7 0-.6-.2-1-.4-1.6l-.7-1.6a11 11 0 00-2.6-3.8l-1.2-.8-.8-.2h-1.2c-.4 0-.6-.2-.6-.5l-.1-.4-.3-3c0-.8 0-1.6.2-2.3v-1zm56.2 19.4a3 3 0 001.4 2c.5.3 1 .5 1.6.6.4.1.8 0 1.1-.1l1.3-.6.6-.3c.6-.4 1.2-.3 1.9 0 1.2.6 2.5.9 3.9.8.7 0 1.3.2 1.7.9.4.6 1 1.2 1.8 1.5 1 .4 2 1.2 2.7 2l2 2 1.3 1.7c.4.6.5 1.2.2 1.9l-.3 1.5c-.2.7 0 1.3.2 1.9a3 3 0 001.3 1.5l2.2 1h2.9c.5 0 .9.2 1.1.6l.5.7a7 7 0 002.1 2.3c.9.6 1.4 1.3 1.7 2.3v.3c.4 1 .8 1.8 1.7 2.4l.8.8c.3.4.4.8.4 1.3a4 4 0 00.4 2.5l.4.6c.3.5.4 1 .4 1.5 0 1.2.3 2.1 1 3l.5.5c.2.2 0 .5-.2.6-.8 0-1.5.4-2.2.3l-.5.2c-1 .2-2 .4-3 .4l-1.3.1-2.6.5H188a1 1 0 01-1-1c0-.4 0-.9.3-1.4l.4-1.8c-.2-1-.3-2.1-1.3-2.8l-.8-.7c-.4-.4-.7-.8-.9-1.3-.2-.7-.6-1.3-1.3-1.7a7.1 7.1 0 01-2-2c-.5-.6-1-1-1.6-1.3l-.5-.2c-1-.5-1.4-1.3-1.6-2.3a9.7 9.7 0 00-1.7-3.9l-.7-.7a31.8 31.8 0 00-2.5-2l-1-1a5.5 5.5 0 00-1.9-1.7c-.3-.2-.8-.4-1.3-.4-.9-.2-1.3-.7-1.6-1.5l-.1-.5a4 4 0 00-.9-2c-.8-1-1.7-1.8-3-2.2l-.8-.1-1.8-.1h-2.9c-.6 0-1.1-.2-1.5-.8l-.2-.7c-.1-1-.5-1.9-1.2-2.6-.5-.5-1-1-1.7-1.3l-2-1-1.3-.8c-.5-.3-.7-.7-.7-1.3v-2.6c0-.5-.1-1-.4-1.4a5.6 5.6 0 00-2.1-1.4c-.8-.3-1.5-.1-2.2.1l-.7.4-.8.3c-.6.2-1 .2-1.3-.4-.4-.8-1.2-1.4-1.8-2-.3-.3-.6-.4-1-.5l-.6-.2c-.4 0-.8-.3-1-.5l-.8-.8a3.4 3.4 0 00-4-.5l-1.7.9-.4.2c-1 .5-1.6 0-2-.6a.7.7 0 01-.1-.8c0-.2.2-.4.4-.6l1.4-1.9c.6-.7.9-1.5 1-2.4l-.1-.7c-.2-.7-.4-1.5-1-2-.5-.4-1-.7-1.6-.7l-.3-.1c-1-.4-1.8 0-2.6.4-.7.3-1.4.6-2 1.1 0 .2-.4.2-.6.3-.3.1-.5 0-.7-.2l-.5-.6-1-1.3c-.5-.5-1.1-.8-1.7-1-.2-.2-.5-.1-.8 0l-1.6.4c-.7.2-1.4.2-2 0-.9-.4-1.6-.8-2.2-1.3-.4-.4-.5-.8-.5-1.3v-1.8c-.2-.8-.2-1.7-.3-2.5v-1.6c0-.5.5-1 1-1h.3c1.4.1 2.8-.3 4-.7l1-.4a3 3 0 012.4 0 12 12 0 002.5.9c.8 0 2 .4 2.7.7.4.1.6.5.8 1l.6 1.3c.4.7 1 1.4 1.7 2a5 5 0 003.6 1c.6-.1 1.1-.4 1.6-.7l1-.4c.4 0 .7.1 1 .4l.2.6.7 1.6c.3.5.8.9 1.2 1.3l1 .9c.5.5 1.2 1 2 1.3a3 3 0 012 2.2c0 .4 0 .7.2 1.1a4 4 0 001.6 2l1.7 1 1 .3c.4.1.8.4 1.1.7l.3.2c.9 1.3 2.3 1.7 3.7 2.1a7 7 0 002 .2c.5 0 1 .1 1.4.4l1 .6c.7.3 1.1.7 1.4 1.3.5.8 1 1.6 1.2 2.4l.7 1c.6.7.7 1.5.5 2.3-.2.7-.2 1.3-.1 2zm-7.1 45.2l-.3.2c-.8.2-1.7.4-2.8.4-.5 0-1-.4-1.4-1l-1-1.7-1.1-2.3c-.2-.4-.2-.8 0-.9.2-.1.5 0 .8.1l.5.3c.7.4 1.3.7 2 .8.3 0 .5.2.8.3.6.2 1.1.5 1.5 1l1 1.6.2.5c.1.3 0 .6-.2.7zm-29.6-14c.1.4 0 .8-.2 1.2l-.2.2c-.2.2-.4.2-.6.1l-.9-.8-1.4-2.2a93.2 93.2 0 01-4-8l-1.3-3c-.5-1.1-.8-2.4-1-3.6-.2-.4-.2-.9-.1-1.4l.1-.4c0-.2.3-.3.5-.2h.2c.8.5 1.6 1.2 2 2 .7 1.5 1.5 3 1.9 4.6l.8 2.9c.2 1 1 1.8 1.7 2.6.1.2.4.3.7.4l.7.2c.8.2 1.3.7 1.3 1.7s-.1 1.8-.3 2.7v1zm118.4-90l.1-.9.3-2.8v-.2c.1-.7.5-1 1.1-.8a9 9 0 012 .6c1.3.6 2.8 1 4.2 1.3l5.6 1.4.6.2 2.2.7c2 .4 4.2.8 6.1 1.6.3 0 .6.2.8.3.4 0 .7.3 1 .3 1.2.3 2.3.8 3.3 1.4l.4.2c1.2.4 2.3 1.1 3.4 1.8l2.9 1.7 3.7 2.3 2.3 1.6 3.4 2.6 2.7 2.4c1.4 1.2 2.4 2.7 3.5 4.1.7 1 1.2 1.9 1.6 2.9l.2.5a36.5 36.5 0 013.6 8.6c.7 1.8 1 3.8 1.7 5.6l.2.7c0 1.4.5 2.7.8 4l.2 1.5c0 1 .3 1.8.5 2.7.1 1 .3 2 .2 2.9l.1 2 .3 2.7v5.5c0 .6 0 1.1.2 1.6v4.4l-.1 2v1.1c0 .8 0 1.5-.3 2.3v.4a24 24 0 01-.3 4c0 .5 0 .9-.2 1.3v.7l-.1 1.6a15.6 15.6 0 01-.4 4c0 1-.3 2-.4 3.1 0 1-.3 1.9-.4 2.8-.2.8-.4 1.7-.3 2.6 0 .5 0 1-.2 1.4v.3c0 1-.3 1.8-.4 2.7v1c0 .4-.2.9-.4 1.3a1 1 0 01-1 .7l-.5-.1c-1.1-.3-2.3-.5-3.5-.6l-2.4-.4c-.6-.1-1.1-.3-1.7-.2a15.5 15.5 0 00-3.4-.2c-.5-.3-1.1-.2-1.7-.4h-.8c-.5 0-1-.1-1.5-.4l-1.1-.2c-.9 0-1.6-.3-2.4-.3-1.4-.1-2.8-.2-4.1-.6l-2.3-.4-3.6-.7-3.6-.6h-1c-.9-.2-1.7-.2-2.6-.2-1 0-1.8-.2-2.6-.4h-.7l-2.6-.3-3.5-.4c-1-.3-2-.1-3-.4h-.8c-.6 0-1.1 0-1.6-.2h-.3c-2.1 0-4.2-.5-6.3-.3l-1.1.1c-.7.2-1.4.2-2 .1-.7 0-1.2-.5-1.2-1.2v-1.1a49 49 0 00.6-6.2c.3-.8.2-1.7.3-2.5v-1.3l.1-.4c0-1.1.2-2.2.4-3.2v-1c.1-.7.2-1.5.1-2.3 0-1.2 0-2.4.3-3.6l.3-1.5v-.7l.1-1 .5-3c0-.6.2-1 .3-1.6l.4-2.3c0-.5 0-1 .2-1.6.4-1.8.5-3.7 1.1-5.4l.4-1.8c0-.6.2-1 .4-1.6l.8-3.6.3-2.1v-.6c.4-.8.1-1.7 0-2.5-.3-.9-1.1-1.4-2.2-1.4h-.8c-.7 0-1.2.2-1.7.7-.4.4-.7 1-.8 1.5l-.5 1.9-.3 1.1c0 .5-.2 1-.4 1.5l-.4 1.9c0 1.2-.3 2.4-.7 3.6l-.4 2.2c0 .9-.2 1.8-.4 2.7v.2c-.4.8-.4 1.6-.6 2.5-.4 1.3-.5 2.6-.6 3.8l-.3 1.5-.1 1.1c0 .7 0 1.5-.2 2.1v.9l-.2 1.2c-.1 1.1-.4 2.1-.3 3.2 0 .6 0 1.2-.2 1.8v.7c0 .8-.2 1.4-.3 2.1l-.1 1.5c0 .6 0 1.2-.2 1.8v.6l-.2 1.2c0 .3-.1.5 0 .8 0 1.4-.3 2.7-.4 4v5.3c-.2.8-.5 1-1.2 1H222c-1 0-2 .1-2.9.3a40.5 40.5 0 01-5.4 1l-1.6.1c-.3.1-.6-.3-.5-.7l.6-.8.7-1.1c.4-.9 1-1.6 1.7-2.3.5-.5.8-1 1-1.6.1-.6.4-1 .6-1.6a29.7 29.7 0 001.5-5l.4-2.1a6 6 0 00.3-1.8v-5.5c-.4-1-.2-2-.2-2.9v-3.3l-.2-.6c0-.8-.1-1.7-.3-2.5l-.2-1.2c-.2-1.2-.2-2.4-.5-3.6l-.3-1.2c-.5-1.3-.7-2.6-.8-4a6 6 0 00-.5-1.9l-.7-1.4-.8-1.9c-.3-1.2-1-2.3-1.7-3.3-.8-1.1-1.6-2.2-2.1-3.5-.3-.6-.8-1.2-1.3-1.8l-1.7-2.3-1.9-2.6-.3-.5-1.6-2c-.4-.4-.8-.9-1-1.4l-.9-1-.6-.6c-.3-.4 0-1 .4-1.1l.4-.1c.8-.1 1.6-.2 2.4-.5h.7c1.5-.1 2.9-.4 4.3-.8 1.4-.3 2.8-.8 4.3-1l1.2-.4c.6-.3 1.1-.6 1.8-.6l.6-.3 3.6-1.5.4-.2c1.4-.5 2.7-1.3 4-2.1l1-.6c1.2-.6 2.3-1.5 3.3-2.4l2.6-2 .3-.2 2.4-2.3 1.2-1.4 1.3-1.5a19.7 19.7 0 004.8-8.8zm13.5-29.1l-.4 1c-.3.6-.8 1-1.4 1.2-.3.1-.6 0-.7-.1l-1-1.1v-.4h.3l2.8-1.1c.3-.1.5 0 .4.5zM190.7 76v-.1c.9-1.1 1.5-2.3 2.3-3.4 1.2-1.6 2.5-3 3.9-4.5 1-1 2.1-1.8 3.5-2.3l2.6-1c1-.5 2.1-1 3.3-1 .7 0 1.3-.2 1.9-.3l2.5-.3c.7-.1 1.3.1 1.9.2h1.8l2.7.5c.6 0 1.1 0 1.7.3l1.9.4 1.6.6 2.4 1a47.4 47.4 0 019.1 6.5L235 74l2 2.5c.6.7 1.1 1.6 1.6 2.4l.7 1.1.2.4 1.7 3.4 1 1.8 1.2 3 .7 2.4.1.3c.2.8-.3 1.4-1.2 1.4h-.8l-1.7-.1h-1c-.9 0-1.5-.2-2.5-.4l-4-1c-.5 0-.8-.3-1.2-.4L230 90l-1-.5c-1-.4-2-.9-3.1-1.1-.8-.2-1.4-.6-2.1-1a50.7 50.7 0 00-6.3-3c-1.8-1.1-3.8-2-5.7-2.8-1.6-.7-3.3-1.2-5-2-.8-.4-1.7-.6-2.7-.7l-.6-.2c-1.1-.2-2.3-.5-3.5-.6-1 0-2-.2-3-.5a3 3 0 00-1-.2h-2.3l-2.3-.3c-.2 0-.4-.1-.5-.3a.7.7 0 01-.3-.8zm-3.8 7.8c.1-.2.4-.3.7-.3h4l1.6.1h1c1.4-.1 2.7-.1 4 .3a101.6 101.6 0 0011.2 2.8l.8.3 3 1.5c.5.3 1 .6 1.7.8 1.1.3 2.2.9 3.1 1.5l.4.2c1.8.7 3.4 1.8 5.2 2.5l.4.2c1.2.9 2.6 1.3 4 1.7l1.2.5c.3.2.7.4.7.8s-.5.5-.8.6c-.6.1-1.1.3-1.7.2l-1.5.2h-2c-.6.2-1.2.3-1.9.3l-2.5.1h-2.2l-1-.1c-.6 0-1.2 0-1.7-.2-1-.3-1.8-.4-2.7-.5-.3 0-.6-.2-1-.4l-1.8-.7a14 14 0 00-2.2-.7l-3-1.2-1.6-.7c-1.8-.7-3.4-1.6-5-2.7l-3.4-2.2-.8-.5-1.1-.8c-.5-.4-1-.7-1.6-.9-.4-.1-.7-.3-1.1-.6l-1.5-1-.6-.4c-.1-.2-.4-.4-.3-.7zm-18.5 9.5c-.3 0-.5-.2-.7-.4a.7.7 0 01-.1-.8c.3-.6.7-1.2 1.2-1.7 1-1 2.4-1.8 3.7-2.5 1-.5 2.2-.9 3.4-.8h2.4c.4 0 .9.1 1.3.3l.4.3c.2.2.2.4 0 .6 0 .2-.2.4-.4.5l-1.8 1c-.8.2-1.6.6-2.3 1l-2.6 1.1-1 .6-2.7.8a2 2 0 01-.8 0zm2.4 25.3a2 2 0 00-.3 0c-.3 0-.5-.1-.6-.3l-.4-.5-.4-.6c-.5-.7-1.2-1-2.3-.6l-.6.3c-.3.2-.8.3-.8.7-.1.6 0 1.2.4 1.6l.3.3 1 .9c.7.5 1.1 1.4 1.6 2.2l.2 1c0 .1 0 .3-.2.4-.3.4-.4.9-.5 1.3v.6c.1.2.4.4.2.7-.2.6-.3 1.2-.9 1.6h-.1c-.7 0-1.3 0-1.8-.5s-1-1-1.2-1.5c-.7-1.3-1.2-2.6-1.4-4-.3-1.5-.2-2.9-.2-4.3l.2-1 .5-1.8a3 3 0 011.9-2h1.1c1.2-.1 2.3.3 3.1 1.1l1.5 1.8c.6.7.5 1.4.3 2.2 0 .3-.3.4-.6.4zm.6 22.5l.3-1.5.4-1.7.3-1.5.2-2.2.3-1.3c.3-.7.5-1.3.6-2 0-.6.3-1.2.5-1.7l.5-2v-.4c.7-1.8 1-3.7 1.9-5.5l.4-1a9 9 0 00.8-2.3c.2-.9.7-1.7 1-2.6a.9.9 0 011-.5l.3.1c1 .7 2 1 3 1.2h1.7c1-.2 2.2-.4 3-1l.3-.1c.2-.1.5-.4.7-.3.4.3.1.7 0 1l-.6 1.4c-.3.7-.5 1.4-.6 2.2v.7c.2 1 .8 1.6 1.6 2.1l1.8 1.1c.4.3.9.4 1.3.4h.6c.7 0 1.4 0 2.2.2l1.9.2h2.3c.7 0 1.3 0 2 .2.8.1 1.5 0 2.2-.4.7-.3 1.2-1 1.4-1.7l.4-2.3c0-.7-.2-1.3-.4-1.9 0-.3-.2-.5-.3-.8v-.4l-.3-2.7v-.6l-.2-1.7-.2-1.4c-.3-1-.2-1.8-.5-2.9l-.8-1.6c-.3-.5-.7-.8-1.2-1a4 4 0 00-1.5-.3h-.6c-1.3 0-2.5.4-3.4 1.3a21 21 0 00-2.2 2.6l-1.2 1.3c-.5.4-.9.9-1.2 1.4l-.7 1c-.3.5-.6.5-.8 0l-.3-.6-1-1.1a2 2 0 00-1.4-.4l-1.5.1c-.9.1-1.7.2-2.5-.4-.4-.3-.8-.6-1-1.1l-.7-1.1c-.4-.6-.4-1.2-.3-1.9 0-.5.2-1 .4-1.5.3-.7.9-1.1 1.6-1.1l1.5-.2h2.6l2.2-.1c.6 0 1.1-.2 1.6-.4 1-.5 1.4-1.3 1.4-2.3 0-.4-.2-.8-.5-1.2-.5-.7-1.2-1-2-1.1-.8 0-1.5-.2-2.2-.3l-2.6-.2h-1c-.4 0-.7-.4-.7-.8 0-.7 0-1.3.4-1.9l.5-1.5.5-1.3.5-.7c.4-.4 1-.5 1.5-.3l.5.3c1.2 1.1 2.7 2 4.2 2.9l3.3 1.9c.2 0 .4.2.6.4 1.6 1.1 3.4 1.9 5.1 2.7.2.2.5.2.7.3l2 1 2.2.9c.6.2 1 .6 1.3 1.2l.2.5c.2.6.7 1 1.2 1.1.4.2.9.4 1.3.4h2.4c1 .2 2 0 3-.2.6-.2 1.1-.1 1.7.2l3.4 1.9c.9.5 1.8.8 2.9.8.9 0 1.7-.6 2-1.4l.3-.8c.1-.8.5-1.1 1.2-1.2a9.7 9.7 0 002.3-.4l3.2-.3c1 0 1.9-.1 2.7-.4.5-.2 1-.2 1.6-.2.4 0 .7.4.6.8l-.1.5c-.3.7-.4 1.4-.6 2.2-.1.6-.1 1.1.1 1.7l.4 1c.2.6.1 1.2-.3 1.7l-.6.6-1 1.3a7.4 7.4 0 00-.6 5.3c.2 1 .7 1.8 1.3 2.5.7.7.8 1.6.6 2.5l-.1.7c-.4 2 1 4.2 2.4 4.8 1 .4 1.9.7 2.9.4 1.9-.2 3-1 4.5-2.1l1.8-1.6c1.1-.8 2-1.8 2.9-2.7.6-.7 1.3-1.2 2.1-1.6l1.5-.8c.7-.4 1.4-.7 2.2-.9l1.6-.4c1 0 2.1 1.2 2.6 2l.4.6c.3.5.4 1 .4 1.4 0 .6 0 1.2-.2 1.8v.7c-.1.8-.4 1.7-.7 2.5l-1 2.2c-.2.6-.5 1.2-1.2 1.6l-.6.4c-.3.3-.5.3-.9.2-.8-.3-1.7-.4-2.6-.4-.4 0-.8 0-1.4.3-.7.2-1 .6-1 .7l-.6.8-.2 1.2c.2.6.3 1 1.5 1.4.2 0 .5 0 .7.2l.2.1c0 .1 0 .2-.2.3a51.1 51.1 0 01-1.8.8l-2 1h-1c-.2 0-.6-.5-.7-.7l-.2-1.4v-1c0-.2 0-.4-.2-.6a.9.9 0 00-1.1-.4 7 7 0 00-2.5 1.4c-.4.4-.5 1-.6 1.5l-.1.8c-.2.8-.3 1.7-.7 2.5-.3.4-.4.9-.5 1.3-.4 1.3-1 2.6-1.6 3.8l-1.6 3.5c-.7 1.4-1.4 2.9-2.3 4.3l-.5 1-2 3.8a12 12 0 01-1 1.6l-1.6 2.3-.9 1.1-3.6 4-4.1 4c-.8.9-1.2 1.8-1 3 .1.7.6 1.1 1.3 1.4.5.3 1.1.4 1.7.1l2-.8c.9-.3 1.6-.8 2.2-1.4l4.2-4.3.6-.6c.4-.8 1-1.4 1.5-2l.8-.9c.1-.1.7-.2.8 0 .2 0 .4.3.4.6l-.1 2.2-.1.8c0 1.5-.5 2.8-1.3 4-1.4 2-3 3.7-4.6 5.4l-1 .8-.5.5-2 2-1.7 1.2c-.8.4-1.4.8-2 1.3l-2.3 1.4-1.3.8-1.2.5-.3.1c-1.6 1-3.4 1.4-5 2l-1 .4c-.9.4-1.8.6-2.7.8l-1.4.3-1.8.5-.6.1-.5.1-2 .2-1.3.2H200c-1.4.4-2.8.1-4.2.2-.7-.3-1.5-.2-2.2-.4l-1.5-.3a8 8 0 01-2.6-.8c-1.5-.7-3-1.4-4.3-2.4a6 6 0 01-2.7-3.6c-.3-1.5-.8-2.9-1.2-4.3-.2-.4-.2-.8-.2-1.3 0-.2.2-.4.4-.4s.5 0 .7.2c1.1.6 2.4 1 3.5 1.8l1 .4 2.2.8 3 1.2c1.4.5 2.8-.3 3.3-1.3l.2-.9c0-.8-.3-1.5-1-2.1-.8-.8-1.7-1.5-2.8-2a5 5 0 01-.7-.3c-.6-.5-1.4-.8-2.2-1l-2.4-1.2c-1.1-.6-2-1.3-3-2l-.9-.8a11 11 0 01-3-3.3 135.9 135.9 0 01-3.4-5.6l-1-2c-.5-1-1-1.9-1.1-3-.3-1.4-.9-2.7-1.2-4.1-.2-.7-.5-1.3-.5-2l-.2-.9a17 17 0 01-.5-4l-.1-3v-2zm23-24.6c0-.2.1-.3.3-.5l2-3.3 1-1c.3-.2.6-.2.8.2l.2.4.2 2.1.2 1v1.9c0 .5-.3.8-.8.8h-1c-.5-.2-1-.4-1.6-.3-.4 0-.8-.2-1.2-.5-.2-.2-.3-.5-.1-.8zm-33.7 60.8l1.2-.7a229 229 0 014.7-2c.6-.2 1.2-.5 1.9-.6h.3l3.3-1.3c.7-.4 1.3-.3 1.8-.3h.4c.5 0 .8.4.7 1l-.2.6c-.2.5-.4 1-.3 1.6l-.1.6v.5c.1 1 .1 2.2.6 3.2.2.2.2.5.3.8.1.5-.3 1-.9 1l-.6-.1a76 76 0 00-4.4-1.1l-1.8-.4-3-.7c-1.2-.3-2.3-.8-3.5-1.2-.1 0-.2 0-.3-.2-.3-.2-.3-.5 0-.7zm-20.8 5c.6-.2 1.3-.3 2-.3h.5c.4 0 1 0 1.6.3.5.1 1.1 0 1.7.3h.2l3 .2 1 .1 3.3.5 2.8.6 2.2.5h2.1c.8 0 1.4.1 2 .5.7.3 1.3.7 2 .9.6 0 1.1.3 1.7.5.5.3 1 .2 1.6.4 1 0 1.7.4 2.6.6 1.4.4 2.8 1 4.2 1.6l2.2 1.1c.5.2 1 .6 1.3 1 .6.6 1.3 1 2 1.4 1.4.7 2.7 1.4 4 2.3l2 1.3 2.8 1.6c1.2.6 2.4 1.4 3.5 2.2l1.8 1.3c.9.5 1.6 1.3 2.3 2l1.5 1.8c.3.6.8 1 1.2 1.5l.8 1.1c.6 1 1.2 1.7 2 2.5.7.9 1.4 1.8 1.9 2.8l.4.7c1 1.5 2 3 2.8 4.5 1.1 2 2.1 4 2.7 6.2l.2 1 .5 3c.2 1 .4 2 .8 3 .3.9.4 1.8.5 2.8l.2 2.6v1l-.1 1.3-.1.4h-.3l-.2-.3-1.9-3a3 3 0 01-.5-2.1c.2-1.3-.2-2.6-.8-3.7-.2-.5-.7-1-1.1-1.2-1-.6-1.6-1.6-2-2.6a3 3 0 00-1.2-1.8c-.6-.4-.9-1-1-1.8v-.3c0-.8-.2-1.6-.4-2.4l-.5-3c-.2-.8-.4-1.6-1-2.4l-.5-.8a3.4 3.4 0 00-2.1-1.6c-.7-.2-1.1-.6-1.6-1l-.6-.6c-1-.8-1.5-1.8-1.9-3-.3-1.2-1-2.3-2-3.1a15.9 15.9 0 01-2.3-2c-1-1.4-2.1-2.2-3.6-2.7l-1.2-.4-1-.2-.7-.1a1 1 0 01-.6-.6l-.3-1c-.3-1-1-2-2-2.6l-2.1-.9h-.5l-3-.4c-1 0-2-.4-2.9-.8-.4-.1-.6-.5-.8-.8a4.4 4.4 0 00-2.6-1.8l-.2-.2c-.4-.2-.9-.3-1.3-.2H164c-.3 0-.7-.1-1-.3-.4-.1-.6-.4-.8-.8-.5-1-1.3-1.8-2.4-2.3l-1-.5c-.5-.4-1.2-.4-1.9-.2l-2.8.4-.6.1c-.8.3-1.5.6-2.3.7h-1l-2.2-.4h-1.3l-1-.2c-.4 0-.8-.3-1.2-.6l-2.1-1.3c-.5-.3-1.1-.4-1.7-.5-.4 0-.7-.2-1-.4-.2-.1-.4-.4-.4-.7 0-.3.2-.5.5-.6zm-5.7 6.8c1 0 2 .2 2.8.6l2.4.8c.4.2.9.4 1.2.7l3 1.9 1.2.4c.5 0 1 0 1.5.2.3 0 .5.1.8.3l.7.5c.8.8 1.8 1 3 .7l1-.3.5-.2c.2 0 .4 0 .6.2l.3.7c.2.7.7 1.1 1.4 1.4.6.3 1.2.6 2 .7l.5.2c.5.2.8.5.9 1l.1.5a4 4 0 001.7 2c.6.6 1.4.6 2.2.5l1.2-.2 1.3-.3c.5-.2 1-.1 1.4 0l.9.5c.5.3.9.7 1 1.3l.3.7a3.7 3.7 0 002.9 2.6h1.1c1-.2 1.8 0 2.5.8.7.7 1.5 1 2.4 1h1c.6.1 1 .6.9 1.2l-.1.7c0 .6.1 1.2.6 1.7l1.5 1.7c.4.4.9.7 1.5.7l.7.1c.6.1.9.5 1 1l.1.9c.2 1.1 1 1.8 1.9 2.4l1 .4c.4.1.6.4.8.8l.4.7c.5 1.5 1.7 2 3.1 2.2.4 0 .8 0 1.3-.2.5-.1.9.1 1 .6l.3 2c0 .8.4 1.5.9 2a4 4 0 011 1.9c.1.6.5 1.2 1 1.6l.5.4c.5.4.8 1 .7 1.5 0 .7.2 1.3.4 1.9.3.8.7 1.5 1.4 1.9.7.4 1 1 1 1.6.3 1.7 1.4 2.4 2.8 2.8 1 .1 1.5.7 1.7 1.5.2.6.4 1.2.4 1.8 0 .7.1 1.4.5 2 0 .3.2.6.3.8.2.6.2 1.1 0 1.7 0 .9-.4 1.7-.5 2.7 0 .4-.2 1-.1 1.4 0 .8.2 1.6.7 2.2l.4.6c.3.5.4 1 .3 1.5-.2.5-.3 1-.2 1.5 0 .5-.1 1-.4 1.5-.5.7-1 1.4-1.7 2l-.5.3c-.4.2-.7.1-.9-.3a2 2 0 01-.2-.5l-.3-2.2c0-.7.1-1.4.4-2l.4-1c.3-.9.3-1.7 0-2.6-.2-.7-.5-1.4-.9-2a1.8 1.8 0 01-.2-1.6c.4-.9.2-1.6-.2-2.3-.7-1.2-1.3-1.7-2.7-2.2h-.3c-.6-.2-1-.6-1.2-1.1l-.2-.7c-.3-.8-.7-1.3-1.3-1.9-.4-.3-.9-.6-1.4-.6-1.4-.1-2.5-.9-3.7-1.5a2 2 0 01-.5-.4c-.5-.5-.6-1-.5-1.7l.3-1.5c.2-.7 0-1.3-.4-2l-.7-.8-1.5-1.2c-.4-.5-.8-.9-1-1.4l-.7-.8a6.8 6.8 0 01-1.6-2.5c-.3-.8-.8-1.3-1.6-1.7-.8-.3-1.4-.9-1.6-1.7-.5-1.4-1.5-2.1-2.7-2.6-.8-.3-1.5-.6-2.3-.5l-1.4.1c-.7.2-1.3-.1-1.8-.5l-.4-.5-1.5-1.2c-.7-.3-1-.8-1.4-1.4-.6-.9-1-1.9-1.4-2.8-.4-1.2-1.2-2.1-2.3-2.7-.4-.3-.8-.5-1.2-.5-.5 0-.9 0-1.3-.2l-1.7-.8c-.4-.2-.7-.6-.8-1l-.1-.6c-.4-1.5-1.5-2.3-2.8-2.9h-1.8l-1 .5c-.4.1-.7 0-1-.3l-.7-.8a11.9 11.9 0 00-5.3-3.3c-.5-.2-1.1-.4-1.7-.4l-1-.3c-.4-.2-.6-.5-.7-.9l-.4-1.5a4.2 4.2 0 00-2.5-3c-.5-.3-1-.3-1.6-.4l-1-.2h-.4l-2-.1a5 5 0 00-2.1.4l-1.8.8c-.2 0-.3.2-.5.3-.6.2-1 0-1.3-.6a8 8 0 01-.2-1 2 2 0 00-.6-1c-.5-.4-1-1-1.6-1.2l-.4-.2-2.2.1-2 .4-1 .2c-.4.2-1 .1-1.4-.1-.6-.3-.9-.9-1-1.5 0-.3 0-.6.3-.8.6-.8 1.1-1.4 2-1.8a8 8 0 011.3-.3c1-.2 2 0 3.5 0l1.6.2c.6 0 1.1 0 1.6-.2h.8c.4.2.9.1 1.3.1zm-15-17.6c.5-.4 1-.5 1.5-.6h.7l1.1.1.8.1c.9 0 1.8.2 2.7.4l.6.2 1.6.2c1 .1 1.7.5 2.3 1a13.4 13.4 0 013.5 5c.2.9-.3 1.6-1.1 1.8h-1.7c-.4-.1-.8-.3-1.1-.6l-1-1.3c-.7-1-1.6-1.8-2.7-2.3l-2-1.1c-1.3-.8-2.6-1.5-4-1.8-.4 0-.7-.2-1-.4-.4-.2-.4-.4-.1-.7zm-13.3 8.2v-.5c0-1.2.8-1.9 1.7-2.3.4-.1.9-.3 1.4-.3h1.6c.6 0 1.2 0 1.7.2 1 0 2 .3 3 .5 2.7.5 5.4 1.5 7.6 2.9l1 .8c.2.4.2.7.2 1.1 0 .4-.2.7-.6.8-.5.3-1 .4-1.6.2-1-.2-2-.1-3-.1l-1.1.1-2.2.5c-.7.2-1.5 0-2.1-.3-1.3-.7-2.7-1-4-1.6l-.5-.2a7 7 0 00-2-.6l-.5-.2c-.5-.2-.6-.5-.6-1zm-17.6 48.7l.3-1.3.2-.5c0-1 .4-1.8.6-2.7l1.4-4 1.1-2.7c.3-.7.6-1.5.5-2.3 0-.5.2-1 .5-1.6l.6-1.8 1-2.8 1.2-2.7a218.3 218.3 0 01.5-5.1v-.7c.3-.6.3-1.2.2-1.8a30.8 30.8 0 011.4-8c.7-1.4 1.4-2.7 2.3-3.9l.7-.7c.4-.4 1-.7 1.6-.6h1c.6-.1 1.4 0 2.2.5h.3c1.3.3 2.5 1 3.7 1.5 1.1.5 2.3 1 3.4 1.8.8.5 1.5 1 2 1.8.4.5.4 1.1.3 1.8l-.3.4c-.2.1-.5.3-.9.2-.5 0-1 0-1.4-.2-.6-.2-1.2-.2-1.8-.2h-1.7c-.6 0-1.2 0-1.8-.2h-1.8a1 1 0 00-.6.2l-.6.7c-.8 1.2-1.7 2.3-2.7 3.3a6 6 0 00-1 2l-1.2 2.9-1.4 3c-.4.9-.8 1.8-.8 2.8l-.1 1v1.4c.1.8.2 1.5.1 2.3 0 .5 0 1 .2 1.6v4.5c0 .8-.3 1.3-1 1.6l-.7.2a9 9 0 00-5 4.7l-.9 1.6-.7 1.4c0 .3-.2.5-.3.8-.2.2-.3.6-.7.6v-.8zm7.8 13.4c-.2 1.2 0 2.4.2 3.6l.1 1 .4 4v2.9l.2 1.7v1.9l-.1.3c0 .2-.2.2-.4.1a6.5 6.5 0 01-2-2.6l-.8-2.9v-.2c0-1-.3-2-.5-2.9l-.6-3c-.2-.8-.2-1.7-.2-2.5V242l-.1-1-.2-1.2v-1.5c.4-1.2.6-2.4 1.2-3.5l.2-.5c.2-1.3.7-2.6 1-3.8.4-1.1.8-2.2 1.5-3.1l.7-.9c.2-.2.5 0 .7.1v.1c.4.8.7 1.5.5 2.4l-.4 1.5c-.3.7-.4 1.3-.5 2l-.5 2.8-.3 3.9-.1 2.5zM82.9 254c0-1.5.5-2.8.4-4.2l.3-3.3.5-3 1.5-5.8.3-.7c0-.1 0-.2.2-.2v.2c.4 1 .3 2.1.5 3.2l.3 2.3c0 .4.1.9.3 1.3v1c0 1 .2 1.8.4 2.7l.1.6c0 1.7.5 3.3 1 4.9l.8 3.3c0 .8.3 1.6.7 2.4.4 1 .8 2.1 1.5 3l.3.5c.7 1.9 1.6 3.6 2.8 5.3v.2c1.2 1.3 2 3 3 4.3l1 2 1 1.5c.5.6 1 1.2 1.3 1.9l1.6 2 1.3 1.3c.5.5 1 1 1.2 1.7a107.9 107.9 0 004.9 5.7 27.6 27.6 0 006.1 4.9c.3.2.3.5.2.8l-.4.5c-.7.7-1.4 1.2-2.3 1.6l-2.2 1-1.5.4c-.8.2-1.7.2-2.6.2h-2.1l-1.6-.2-1.7-.1-1.8-.3-1.5-.3c-1.2-.4-2.3-1-3.1-2l-1-1c-.7-.5-1.2-1.1-1.6-1.8l-2.8-4.1c-.9-1.4-1.9-2.7-2.3-4.4-.6-1.2-1-2.6-1.4-3.9l-.6-1.7-.8-2.8-.9-3.3v-.4c0-.8-.3-1.6-.4-2.5l-.5-3.4c-.1-1.5-.4-3-.3-4.4v-.7c-.2-.7-.2-1.3-.2-2l.1-4.2z" fill="currentColor"/></svg>