<svg viewBox="0 0 76 64" fill="none" xmlns="http://www.w3.org/2000/svg"><path fill-rule="evenodd" clip-rule="evenodd" d="M39.0615 37.3152C39.1632 36.9527 39.2921 36.6722 39.4617 36.4807C39.6244 36.2823 39.7737 36.0976 39.9161 35.9266C40.0585 35.7556 40.1399 35.5162 40.1738 35.2152C40.2349 34.6269 39.9568 34.1618 39.3396 33.8266C38.7223 33.4846 37.6982 33.3204 36.267 33.3204C34.7341 33.318 33.3844 33.6077 32.2178 34.1891C31.0878 34.7425 30.0779 35.5169 29.247 36.467C28.4541 37.3823 27.8148 38.422 27.3546 39.5452C26.9253 40.584 26.6509 41.6815 26.5407 42.8013C26.4118 44.2515 26.6153 45.3391 27.1512 46.0711C27.687 46.803 28.4399 47.1655 29.4166 47.1655H29.4162C31.2655 47.17 32.9432 45.9479 34.4493 43.499C34.3933 43.7884 34.3523 44.0808 34.3272 44.3746C34.3068 44.6277 34.3001 44.874 34.3001 45.1066C34.3001 45.7427 34.4561 46.2489 34.7748 46.6183C35.1004 46.9877 35.5955 47.1655 36.267 47.1655C37.006 47.1645 37.726 46.9326 38.3289 46.502C38.9801 46.0574 39.4617 45.4281 39.7804 44.6209C40.0924 43.7316 40.011 43.2665 39.543 43.2117C39.3938 43.1844 39.2243 43.2459 39.0479 43.4101C38.6613 43.8274 38.3357 44.0326 38.0509 44.0326C37.8203 44.0326 37.671 43.8958 37.6032 43.6153C37.5354 43.3349 37.5829 42.8766 37.7524 42.2267L39.0615 37.3152ZM35.8869 36.255C35.854 36.9181 35.7424 37.5748 35.5545 38.2113C35.3364 38.9679 35.0665 39.7084 34.7474 40.4277C34.4323 41.1442 34.0627 41.8348 33.6418 42.4935C33.2348 43.1228 32.8143 43.6358 32.3802 44.0258H32.3799C31.9458 44.4157 31.5253 44.6072 31.1254 44.6072C30.7931 44.6072 30.5354 44.4157 30.3522 44.0326C30.1691 43.6495 30.1216 43.0886 30.2234 42.3498C30.3292 41.503 30.5415 40.6732 30.8541 39.8804C31.158 39.0927 31.5494 38.3423 32.0208 37.6436C32.4752 36.9732 32.9635 36.4328 33.479 36.0292C33.9945 35.6256 34.5032 35.4273 35.0051 35.4273C35.3646 35.4273 35.6088 35.4957 35.7309 35.6393C35.8597 35.7761 35.9075 35.9882 35.8869 36.255Z" fill="currentColor"/><path fill-rule="evenodd" clip-rule="evenodd" d="M50.3209 12.067C50.6576 11.7243 51.0205 11.4086 51.4061 11.123L47.5875 25.1255C47.519 25.4015 47.3867 25.657 47.2009 25.8711C47.0381 26.0489 46.7532 26.2268 46.353 26.3841C45.9936 26.5688 45.7426 26.7467 45.6002 26.9177C45.4645 27.0832 45.3902 27.2912 45.3899 27.506C45.3899 28.1421 45.7562 28.4568 46.4751 28.4431L52.0776 28.3405C52.4371 28.3405 52.7287 28.2379 52.9526 28.0395C53.1703 27.8353 53.289 27.5456 53.2781 27.246C53.2781 26.8219 53.0136 26.5414 52.471 26.3978L51.691 26.2473C51.1077 26.1173 50.9178 25.6795 51.1145 24.9339L52.2743 20.6723C53.0543 21.2195 54.0446 21.4932 55.2519 21.4932C56.3303 21.4915 57.3857 21.1754 58.2905 20.5834C59.2401 19.977 60.0201 19.099 60.6305 17.9498C61.241 16.8074 61.5869 15.4256 61.6683 13.8044C61.7971 11.8686 61.397 10.35 60.4813 9.24868C59.5612 8.14497 58.2227 7.59328 56.466 7.59328C56.2354 7.59328 56.0048 7.60012 55.7741 7.60696C56.0658 6.15678 55.6995 5.42485 54.6753 5.42485C54.1317 5.42074 53.6098 5.64066 53.2306 6.03365C52.8237 6.43724 52.5252 6.99816 52.3353 7.71641L52.1386 8.45518C51.0398 8.94086 50.1378 9.59755 49.4324 10.4252C49.1271 10.7399 48.9237 11.0751 48.8355 11.4308C48.7405 11.7797 48.7948 12.0601 48.9847 12.2585C49.351 12.6142 49.7986 12.5526 50.3209 12.067ZM55.2044 9.78908C55.2926 9.78224 55.3875 9.7754 55.4757 9.7754C56.2896 9.7754 56.9408 10.0764 57.4291 10.6783C57.9175 11.2803 58.1074 12.2585 57.9853 13.6129C57.9175 14.7142 57.714 15.6924 57.3816 16.5612C57.0561 17.4231 56.6355 18.1071 56.1268 18.6133C55.6249 19.1195 55.0823 19.3658 54.499 19.3658C53.78 19.3658 53.2103 19.1469 52.8033 18.7022L55.2044 9.78908Z" fill="currentColor"/><path fill-rule="evenodd" clip-rule="evenodd" d="M36.7354 12.067C37.0722 11.7243 37.4351 11.4086 37.8207 11.123L34.002 25.1255C33.9328 25.3998 33.8033 25.6549 33.6222 25.8711C33.4526 26.0489 33.1745 26.2268 32.7744 26.3841C32.4081 26.5688 32.1571 26.7467 32.0215 26.9177C31.8831 27.0815 31.8085 27.2905 31.8112 27.506C31.8112 28.1421 32.1707 28.4568 32.8897 28.4431L38.4989 28.3405C38.8584 28.3405 39.1501 28.2379 39.3671 28.0395C39.5893 27.8381 39.711 27.5474 39.6995 27.246C39.6995 26.8219 39.4282 26.5415 38.8856 26.3978L38.1055 26.2473C37.5222 26.1173 37.3323 25.6796 37.5358 24.9339L38.6889 20.6723C39.4756 21.2196 40.4659 21.4932 41.6664 21.4932C42.7517 21.4932 43.7623 21.1854 44.7119 20.5834C45.657 19.977 46.4347 19.099 47.0451 17.9498C47.6555 16.8074 48.0015 15.4257 48.0829 13.8045C48.2141 11.8686 47.8183 10.35 46.8959 9.24869C45.9758 8.14498 44.6373 7.59329 42.8805 7.59329C42.6567 7.59329 42.4261 7.60014 42.1955 7.60698C42.4804 6.15679 42.1209 5.42486 41.0967 5.42486C40.5507 5.41939 40.0264 5.63931 39.6452 6.03366C39.2383 6.43725 38.9398 6.99817 38.7499 7.71642L38.5532 8.4552C37.452 8.94087 36.5523 9.59756 35.8537 10.4253C35.5417 10.7399 35.3382 11.0751 35.25 11.4308C35.1619 11.7797 35.2093 12.0601 35.3993 12.2585C35.7723 12.6142 36.22 12.5527 36.7354 12.067ZM41.6193 9.78909C41.7143 9.78225 41.8024 9.77541 41.8906 9.77541C42.7045 9.77541 43.3557 10.0764 43.844 10.6784C44.3392 11.2803 44.5223 12.2585 44.4002 13.6129C44.349 14.6202 44.1475 15.6141 43.8033 16.5612C43.471 17.4231 43.0504 18.1071 42.5485 18.6133C42.0398 19.1195 41.4972 19.3658 40.9139 19.3658C40.1949 19.3658 39.6252 19.1469 39.2182 18.7023L41.6193 9.78909Z" fill="currentColor"/><path fill-rule="evenodd" clip-rule="evenodd" d="M46.8141 36.2276H48.5844C49.1202 36.2276 49.5408 36.0976 49.8663 35.8308C50.1851 35.5709 50.3411 35.2083 50.3411 34.7432H50.3408C50.3408 34.2643 50.1169 34.0318 49.6696 34.0318H47.472L47.6213 33.5735C47.7189 33.2547 47.7983 32.9304 47.8586 32.6021C47.8976 32.3829 47.9204 32.1612 47.9265 31.9386C47.9265 31.3024 47.6145 30.9809 46.9905 30.9809C46.4953 30.9809 46.0545 31.234 45.6882 31.7265L44.7861 33.1357C44.5419 33.4572 44.3249 33.6761 44.1214 33.7787C43.9247 33.8881 43.6534 33.936 43.3143 33.936H42.5885C41.7271 33.936 41.2998 34.2712 41.2998 34.9416C41.2998 35.3041 41.5169 35.6188 41.9442 35.8924L42.636 36.1386C42.9141 36.3096 43.0633 36.5354 43.0836 36.8158C43.104 37.1031 43.009 37.5615 42.7988 38.1976L41.5508 42.2746C40.999 43.9207 40.9335 45.1476 41.3541 45.9547C41.7678 46.7619 42.5614 47.1655 43.7348 47.1655C44.603 47.1655 45.383 47.0013 46.0612 46.6661C46.7022 46.3689 47.2716 45.9349 47.7298 45.3938C48.1571 44.8808 48.4284 44.3541 48.5234 43.8205C48.6047 43.3143 48.4691 43.0475 48.1028 43.0133C47.8926 42.986 47.6213 43.1228 47.2957 43.4238C46.7056 44.0326 46.1698 44.3335 45.7018 44.3335C45.2812 44.3335 45.0031 44.1625 44.8675 43.8205C44.7318 43.4785 44.7929 42.8834 45.0574 42.0283L46.8141 36.2276Z" fill="currentColor"/><path fill-rule="evenodd" clip-rule="evenodd" d="M7.09472 21.2186C7.48133 21.2186 7.79333 21.116 8.01716 20.9039C8.24438 20.6939 8.3685 20.3936 8.35629 20.0831C8.35629 19.6795 8.12568 19.3648 7.66446 19.1528L6.92515 18.9612C6.74914 18.8822 6.60535 18.7447 6.51819 18.5713C6.44358 18.4071 6.4368 18.1677 6.50463 17.8667C6.6335 17.3811 6.83698 16.6423 7.1015 15.6367C7.36603 14.638 7.65768 13.5367 7.97646 12.3191H15.3424C15.0304 13.5025 14.7456 14.5833 14.4878 15.5615C14.2233 16.5465 14.0266 17.2785 13.8977 17.7641C13.796 18.1267 13.6671 18.3866 13.5111 18.5508C13.3226 18.728 13.0947 18.8572 12.8464 18.927L12.1885 19.1117C11.9497 19.1965 11.7388 19.3457 11.5781 19.5427C11.4132 19.7393 11.324 19.9897 11.3271 20.2472C11.3169 20.5003 11.399 20.7486 11.5577 20.945C11.7069 21.1228 11.985 21.2186 12.3988 21.2186H18.4828C18.8694 21.2186 19.1814 21.116 19.4052 20.9039C19.6325 20.6939 19.7566 20.3936 19.7444 20.0831C19.7444 19.6795 19.5138 19.3648 19.0525 19.1528L18.3132 18.9612C18.1362 18.8935 17.9924 18.7584 17.9131 18.585C17.8317 18.4208 17.8249 18.1814 17.8927 17.8667C18.0148 17.4016 18.1979 16.7039 18.4489 15.7736C18.6998 14.8501 18.9847 13.7966 19.2899 12.6269C19.6019 11.4504 19.9139 10.2738 20.2327 9.07671C20.5471 7.88647 20.8364 6.79199 21.1009 5.79328C21.3722 4.78772 21.5757 4.00107 21.7249 3.42647C21.8199 3.09128 21.9284 2.84502 22.064 2.68769C22.2299 2.51736 22.4351 2.39047 22.6609 2.31831L23.3934 2.10625H23.3931C23.6403 2.0269 23.8611 1.87983 24.0307 1.6818C24.3498 1.27479 24.3661 0.704635 24.0714 0.279499C23.9221 0.0948055 23.6373 -0.000961304 23.2303 -0.000961304H17.1124C16.7325 -0.000961304 16.4409 0.101646 16.2442 0.313701C16.0407 0.518916 15.939 0.785695 15.939 1.12088C15.9322 1.52447 16.1696 1.83913 16.6511 2.06487L17.248 2.2564C17.6821 2.42741 17.8313 2.77628 17.7025 3.303C17.5397 3.97336 17.2955 4.93103 16.9631 6.18284C16.6308 7.43704 16.2849 8.75487 15.9254 10.1366H8.54621C8.91722 8.77778 9.26517 7.48253 9.59074 6.25125C9.9163 5.0268 10.1673 4.07597 10.3368 3.41244C10.425 3.07726 10.5403 2.831 10.676 2.67367C10.836 2.50232 11.0405 2.37919 11.2661 2.31796L12.0054 2.10591C12.2499 2.02143 12.4676 1.87265 12.6361 1.67496C12.8071 1.4759 12.899 1.22007 12.8939 0.956707C12.9034 0.709082 12.8291 0.46556 12.6836 0.265818C12.5412 0.0879651 12.2631 -0.000961304 11.8426 -0.000961304H5.78567C4.96497 -0.000961304 4.55122 0.375266 4.55122 1.12088C4.54444 1.52447 4.77505 1.83229 5.25662 2.04435L5.86028 2.2564C6.28758 2.42741 6.44358 2.77628 6.30793 3.303C6.17228 3.87076 5.9688 4.65057 5.71106 5.64244C5.44653 6.64115 5.16166 7.73563 4.85644 8.92588C4.54444 10.1161 4.23244 11.2995 3.92044 12.4761C3.60843 13.6458 3.33034 14.6993 3.0726 15.6364C2.81486 16.5804 2.63173 17.285 2.50964 17.7638C2.4079 18.1263 2.27903 18.3863 2.11625 18.5436C1.92905 18.7177 1.70352 18.8442 1.45833 18.913L0.854676 19.1114C0.619657 19.2 0.410072 19.3457 0.244237 19.5355C-0.0738701 19.948 -0.0820093 20.5229 0.223889 20.9446C0.373107 21.1225 0.657979 21.2182 1.06494 21.2182H7.09472V21.2186Z" fill="currentColor"/><path fill-rule="evenodd" clip-rule="evenodd" d="M68.0396 33.3027C66.3914 33.2572 65.1061 33.6519 64.1592 34.4214C63.2059 35.1841 62.7393 36.1442 62.6799 37.2944C62.6555 38.1639 62.9136 38.8719 63.3216 39.4872C63.7479 40.0724 64.2081 40.4472 65.2706 41.2127C66.1286 41.7924 66.852 42.5695 67.1165 42.9204C67.3742 43.2785 67.5062 43.625 67.5123 43.967C67.5258 44.3289 67.3983 44.6811 67.1586 44.9448C66.9117 45.2229 66.5501 45.3662 66.0733 45.3748C65.626 45.3867 65.1841 45.2718 64.7961 45.042C64.4146 44.8094 64.0694 44.3915 63.7543 43.795C63.522 43.3955 63.285 43.0849 63.0428 42.8773C62.822 42.6707 62.5338 42.5582 62.236 42.5633H62.2357C61.4679 42.577 61.0857 43.0764 61.1033 44.0682C61.1186 44.937 61.5225 45.6823 62.3079 46.2976C63.1001 46.9129 64.2444 47.207 65.7539 47.18C67.2501 47.1533 68.4429 46.8171 69.3453 46.1649C70.241 45.5102 70.7493 44.662 70.87 43.6198C70.9291 43.1386 70.905 42.6502 70.7985 42.1775C70.6906 41.6936 70.437 41.2055 70.0242 40.7137C69.618 40.2146 68.9929 39.6852 68.1485 39.1256C67.3369 38.538 66.792 38.0486 66.5264 37.6495C66.2544 37.2507 66.1154 36.8768 66.1093 36.5211C66.096 36.1206 66.2422 35.7321 66.5142 35.4465C66.7936 35.1404 67.0609 35.0477 67.5574 35.0388C68.1315 35.0391 68.7552 35.4475 69.2378 36.1374C69.6051 36.6624 69.8452 37.4415 70.186 37.7945C70.5692 38.1912 71.8016 38.1105 71.801 36.8621C71.8006 33.958 69.2415 33.3358 68.0396 33.3027Z" fill="currentColor"/><path fill-rule="evenodd" clip-rule="evenodd" d="M23.665 10.7946C22.8683 11.7047 22.2287 12.7428 21.7726 13.866C21.3433 14.9071 21.0689 16.0067 20.9587 17.1289C20.8298 18.5723 21.0333 19.6599 21.5691 20.3918C22.105 21.1238 22.8578 21.4931 23.8277 21.4931C25.6818 21.4908 27.3615 20.2687 28.8673 17.8266C28.811 18.1136 28.7699 18.404 28.7452 18.6954C28.7248 18.9553 28.7113 19.1947 28.7113 19.4273C28.7113 20.0635 28.874 20.5697 29.1928 20.9391C29.5184 21.3085 30.0135 21.4931 30.685 21.4931C31.4243 21.4884 32.1443 21.2544 32.7469 20.8228C33.3981 20.3781 33.8797 19.7557 34.1984 18.9416C34.5104 18.0592 34.429 17.5872 33.961 17.5325C33.805 17.5051 33.6423 17.5735 33.4659 17.7309C33.0793 18.1481 32.7537 18.3534 32.4689 18.3534C32.2382 18.3534 32.089 18.2165 32.0212 17.9361C31.9466 17.6625 32.0009 17.1973 32.1704 16.5475L33.4795 11.6428C33.548 11.3367 33.6823 11.0494 33.8729 10.8015C34.0424 10.6031 34.1917 10.4184 34.3341 10.2474C34.4765 10.0764 34.5579 9.83694 34.5918 9.53596C34.6529 8.94768 34.3748 8.48252 33.7576 8.14734C33.1403 7.81216 32.1162 7.64114 30.685 7.64114C29.1521 7.63875 27.8024 7.92844 26.6358 8.50989C25.5041 9.06328 24.4938 9.84002 23.665 10.7946ZM24.642 16.6706C24.7488 15.8241 24.9608 14.9943 25.2728 14.2012C25.578 13.4142 25.9694 12.6638 26.4394 11.9643C26.8938 11.294 27.3822 10.7536 27.8977 10.35C28.4132 9.94639 28.9219 9.74802 29.4238 9.74802C29.7833 9.74802 30.0274 9.81642 30.1495 9.96007H30.1492C30.2713 10.0969 30.3255 10.3089 30.3055 10.5826C30.2726 11.244 30.1587 11.899 29.9664 12.5321C29.7548 13.29 29.4872 14.0309 29.166 14.7484C28.851 15.465 28.4813 16.1555 28.0605 16.8142C27.7101 17.38 27.2859 17.8954 26.7989 18.3465C26.3648 18.7364 25.9443 18.928 25.5441 18.928C25.2117 18.928 24.954 18.7364 24.7709 18.3534C24.5877 17.9703 24.5403 17.4094 24.642 16.6706Z" fill="currentColor"/><path fill-rule="evenodd" clip-rule="evenodd" d="M53.0608 41.0074C53.8001 40.8535 54.6446 40.6763 55.586 40.4824C56.5281 40.2816 57.3617 40.1 57.7788 40.0101C59.9716 39.5377 60.3942 38.8964 60.757 38.3632C61.6133 37.1046 61.0185 35.3394 60.3457 34.6608C59.7936 34.0164 58.9342 33.6275 57.7744 33.502C56.365 33.3495 55.0641 33.5872 53.8581 34.2138C52.6522 34.8424 51.6409 35.756 50.8246 36.9541C50.0052 38.1587 49.4721 39.5391 49.2246 41.0946C48.9736 42.6844 49.2066 44.0234 49.9089 45.1175H49.9086C50.6109 46.2117 51.8125 46.8437 53.5051 47.027C54.7799 47.1649 55.9088 47.0671 56.8872 46.7185C57.8656 46.37 58.6609 45.8854 59.2794 45.2643C59.8919 44.6356 60.2887 43.9837 60.4637 43.301C60.6099 42.7596 60.5023 42.4248 60.1279 42.288C59.8 42.1631 59.3276 42.3735 58.7178 42.9128C58.1708 43.6311 57.5668 44.1161 56.9103 44.389C56.2476 44.6544 55.6294 44.7598 55.0563 44.6975C54.2403 44.6093 53.6509 44.2498 53.2948 43.6195C52.9397 42.9826 52.8607 42.1207 53.0595 41.0211L53.0608 41.0074ZM55.1926 36.4154C55.9197 35.6684 56.618 35.3301 57.3023 35.3982C58.0942 35.4772 58.9813 36.0238 58.5378 37.3159C58.0942 38.6081 56.8285 38.7302 55.8583 38.9426C54.888 39.1547 53.4712 39.3937 53.4712 39.3937C53.8944 38.1532 54.4655 37.1624 55.1926 36.4154Z" fill="currentColor"/><path fill-rule="evenodd" clip-rule="evenodd" d="M75.5997 8.16793C75.3351 7.81907 74.935 7.64122 74.4059 7.64122C73.6056 7.64122 72.9273 7.9764 72.3643 8.65361C71.8014 9.33082 71.3198 10.3774 70.9061 11.7934L68.6678 19.6258C68.6203 17.9088 68.5389 16.2808 68.4439 14.7348C68.3422 13.1865 68.2405 11.8276 68.1387 10.6579C68.0302 9.60443 67.7792 8.8383 67.3926 8.35947C66.9992 7.88063 66.4498 7.64122 65.7377 7.64122C65.0062 7.6354 64.294 7.87892 63.7164 8.3321C63.1128 8.79042 62.6787 9.33082 62.4142 9.96014C62.0682 10.7947 62.0886 11.3282 62.4752 11.5471C62.7669 11.7113 63.0314 11.6224 63.2756 11.294C63.5808 10.8562 63.8521 10.6373 64.0691 10.6373C64.2523 10.6373 64.3947 10.7331 64.51 10.9315C64.6253 11.123 64.7203 11.4924 64.7881 12.0465C64.9034 13.2436 65.0051 14.5091 65.1137 15.8635C65.2154 17.2111 65.3036 18.4834 65.3646 19.6736C65.4189 20.8639 65.4528 21.8215 65.4528 22.5535C65.4528 23.6822 65.2018 24.5919 64.7067 25.2897C64.2116 25.9806 63.6554 26.3226 63.0314 26.3226C62.7431 26.3325 62.4643 26.2183 62.2649 26.0079C62.0533 25.7788 61.8648 25.5291 61.702 25.2623C61.5321 24.9877 61.3269 24.7366 61.0915 24.5167C60.8609 24.2978 60.5557 24.1884 60.1759 24.1884C59.6536 24.1884 59.2331 24.3662 58.9007 24.7288C58.5684 25.0845 58.4056 25.5428 58.4056 26.0969C58.3927 26.8052 58.7057 27.4797 59.2534 27.9233C59.8164 28.4021 60.671 28.6415 61.8173 28.6415C63.6554 28.6439 65.2154 28.1353 66.4973 27.1161C67.7725 26.09 68.722 24.5646 69.346 22.5193L71.6454 15.7746C71.9235 14.8374 72.2422 14.1055 72.5949 13.5719C72.9765 13.0219 73.493 12.5811 74.0939 12.2927C74.8197 11.8755 75.3216 11.4582 75.5929 11.0409C75.8642 10.6237 75.9998 10.1175 75.9998 9.51551C75.9998 8.97511 75.8642 8.52364 75.5997 8.16793Z" fill="currentColor"/><path fill-rule="evenodd" clip-rule="evenodd" d="M20.7878 32.3904C20.8872 31.0999 20.6725 29.9483 20.1435 28.9359C19.6077 27.9304 18.8073 27.1301 17.7289 26.5486C16.6504 25.974 15.3482 25.6799 13.8153 25.6799H6.66635C5.8253 25.6799 5.398 26.0561 5.398 26.8154C5.398 27.1985 5.62183 27.5063 6.0627 27.7252L6.70705 27.9372C7.16149 28.1082 7.31749 28.4708 7.17505 29.0317C7.07331 29.3943 6.9241 29.9415 6.73418 30.6803C6.53748 31.4191 6.31366 32.2673 6.0627 33.2181C5.81174 34.1758 5.554 35.1676 5.28269 36.1869C5.01139 37.213 4.74686 38.2048 4.50269 39.1625C4.25173 40.1133 4.0279 40.9684 3.8312 41.714C3.63451 42.4596 3.48529 43.0205 3.39033 43.3968C3.27503 43.7867 3.14616 44.0671 2.99016 44.2245C2.80363 44.3958 2.58116 44.5224 2.33902 44.5939L1.78284 44.7717H1.7825C1.53833 44.8678 1.31823 45.0176 1.13815 45.2098C0.963159 45.4065 0.870575 45.6641 0.88041 45.9281C0.88041 46.2086 0.948237 46.4411 1.09746 46.6258C1.23989 46.8037 1.5112 46.8994 1.91816 46.8994H8.36168C8.74151 46.8994 9.03994 46.79 9.25021 46.5779C9.46047 46.3659 9.56221 46.0923 9.56221 45.7571C9.56221 45.2646 9.3316 44.9636 8.87038 44.8541L7.88011 44.6558C7.6495 44.601 7.50028 44.4848 7.43246 44.2932C7.35785 44.1017 7.37819 43.7665 7.48672 43.3082C7.56811 42.9593 7.69698 42.46 7.86655 41.7964C8.03611 41.1329 8.22603 40.3873 8.43629 39.5596C8.95245 39.7552 9.48624 39.8996 10.0302 39.9905C10.6759 40.0986 11.3294 40.1489 11.9836 40.141C13.4337 40.1516 14.8686 39.8435 16.1889 39.2381C17.466 38.6546 18.5699 37.7445 19.3903 36.5977C20.2249 35.4409 20.6861 34.0386 20.7878 32.3904ZM16.6843 32.137C16.5351 33.9429 15.9722 35.3794 14.9955 36.4465C14.0164 37.5136 12.7707 38.0472 11.2582 38.0472H11.2579C10.468 38.0526 9.68633 37.8871 8.96567 37.5615C9.20307 36.6585 9.44046 35.7624 9.68464 34.8663C9.92203 33.9634 10.1459 33.1357 10.3426 32.3764C10.546 31.6171 10.7156 30.9946 10.8513 30.4884C10.9801 29.989 11.0683 29.6881 11.0954 29.5718C11.2853 28.9151 11.5363 28.4431 11.8415 28.1489C12.1467 27.8548 12.6012 27.7112 13.1981 27.7112C14.3715 27.7112 15.2803 28.1079 15.9247 28.9082C16.5738 29.7062 16.8268 30.7825 16.6843 32.137Z" fill="currentColor"/><path fill-rule="evenodd" clip-rule="evenodd" d="M25.1234 44.7304C25.3608 44.2721 25.4422 43.9095 25.3608 43.6359C25.2862 43.3623 25.1438 43.2186 24.9403 43.1981C24.7504 43.1708 24.5672 43.246 24.3841 43.4239C24.2295 43.6038 24.046 43.7563 23.8415 43.8753C23.7024 43.9454 23.5495 43.9827 23.3938 43.9848C23.1768 43.9848 23.0411 43.8616 22.9869 43.6086C22.9394 43.3555 23.0208 42.8629 23.2311 42.1242L25.917 32.9853C26.0865 32.4175 26.1611 31.9318 26.1272 31.5282C26.1072 31.1636 26.034 30.8042 25.9102 30.4611C25.7949 30.1533 25.6931 29.8728 25.605 29.6129C25.5144 29.3513 25.4978 29.0694 25.5575 28.7989C25.7474 28.1969 26.1272 27.8891 26.6834 27.8891C27.0256 27.8881 27.3576 28.0037 27.6262 28.2174C27.9111 28.4363 28.2638 28.5458 28.6843 28.5458C29.1581 28.5472 29.6162 28.3744 29.973 28.0601C30.3596 27.7386 30.5495 27.2735 30.5495 26.6783C30.5495 26.1927 30.3596 25.7617 29.9866 25.3855C29.6067 25.0024 29.0506 24.8177 28.3112 24.8177C27.2192 24.8177 26.2425 25.1803 25.3811 25.9122C24.5198 26.6441 23.8686 27.8002 23.4277 29.3803L19.4599 43.246C19.1072 44.4841 19.0597 45.4486 19.3175 46.1395C19.5684 46.8236 20.1924 47.1656 21.1691 47.1656C22.0441 47.1656 22.8105 46.9536 23.482 46.5226C24.1535 46.0985 24.7029 45.4965 25.1234 44.7304Z" fill="currentColor"/><path fill-rule="evenodd" clip-rule="evenodd" d="M54.2197 55.4152C54.021 55.3475 53.8039 55.3622 53.616 55.4563C53.3685 55.5698 53.1436 55.7275 52.9513 55.9214C51.9746 56.8791 50.7266 57.7341 49.2209 58.4866C47.7131 59.2322 46.0059 59.8205 44.1 60.2514C42.096 60.6851 40.0517 60.8982 38.0024 60.8876C35.8319 60.8876 33.7971 60.6687 31.8844 60.2309C29.9717 59.7931 28.2692 59.198 26.7567 58.4524C25.251 57.7023 24.0301 56.8586 23.0941 55.9214C22.8926 55.7295 22.661 55.5725 22.409 55.4563C22.214 55.3619 21.9905 55.3471 21.785 55.4152H21.7847C21.2421 55.6204 21.1335 56.0924 21.4662 56.8244C22.192 58.1148 23.3654 59.3074 24.9864 60.4019C26.6075 61.492 28.5338 62.3651 30.7653 63.0218C32.9991 63.6741 35.4114 64 38.0024 64C40.5821 63.998 42.9876 63.6717 45.2191 63.0218C47.4506 62.3696 49.3769 61.4964 50.9979 60.4019C52.619 59.3098 53.7992 58.1172 54.5385 56.8244C54.864 56.0787 54.7623 55.6067 54.2197 55.4152Z" fill="currentColor"/></svg>